<svg width="499" height="343" viewBox="0 0 499 343" fill="none" xmlns="http://www.w3.org/2000/svg">
<path d="M133.65 180.819L3.50229 120.418L298.633 69.5635L189.666 234.239L192.436 245.617L147.312 320.576L133.65 180.819Z" fill="#FF7E0D"/>
<path d="M133.65 180.819L3.50229 120.418L298.633 69.5635L189.666 234.239L192.436 245.617L147.312 320.576L133.65 180.819Z" fill="#FF7E0D"/>
<path d="M133.274 180.601L3.12596 120.201L298.257 69.3463L189.289 234.022L192.06 245.4L146.936 320.359L133.274 180.601Z" fill="#FF7E0D"/>
<path d="M133.274 180.601L3.12596 120.201L298.257 69.3463L189.289 234.022L192.06 245.4L146.936 320.359L133.274 180.601Z" fill="#FF7E0D"/>
<path d="M364.5 161.687L494.648 222.087L199.517 272.942L308.485 108.267L305.714 96.8887L350.839 21.9292L364.5 161.687Z" fill="#FF7E0D"/>
<path d="M364.5 161.687L494.648 222.087L199.517 272.942L308.485 108.267L305.714 96.8887L350.839 21.9292L364.5 161.687Z" fill="#FF7E0D"/>
<path d="M364.878 161.904L495.026 222.305L199.895 273.159L308.862 108.484L306.091 97.1062L351.216 22.1467L364.878 161.904Z" fill="#FF7E0D"/>
<path d="M364.878 161.904L495.026 222.305L199.895 273.159L308.862 108.484L306.091 97.1062L351.216 22.1467L364.878 161.904Z" fill="#FF7E0D"/>
</svg>
