<svg width="1366" height="768" viewBox="0 0 1366 768" fill="none" xmlns="http://www.w3.org/2000/svg">
<mask id="mask0" mask-type="alpha" maskUnits="userSpaceOnUse" x="0" y="0" width="1366" height="768">
<rect width="1366" height="768" fill="white"/>
</mask>
<g mask="url(#mask0)">
<path d="M531.932 36.5918C479.796 -88.3181 553.655 -152.131 597.102 -168.423C662.273 -224.288 832.44 -128.597 867.288 -247.624C902.136 -366.65 1056.01 -433.178 1242.47 -419.149C1428.93 -405.119 1318.5 -168.423 1504.51 -247.624C1690.52 -326.824 1776.05 -219.112 1828.55 4.91177C1881.05 228.935 1428.03 -33.1043 1580.54 314.471C1733.06 662.047 1622.18 664.762 1391.37 651.638C1160.56 638.513 1189.52 840.813 1056.01 834.024C922.502 827.236 909.378 674.719 867.288 590.088C825.199 505.457 704.362 593.256 642.36 479.208C580.358 365.159 671.777 336.195 668.609 222.146C665.441 108.098 597.102 192.729 531.932 36.5918Z" fill="#FF7E0D"/>
<path d="M582.863 90.5602C528.348 -19.452 591.42 -81.5599 629.77 -98.8624C685.447 -153.264 845.031 -76.6398 869.56 -186.438C894.09 -296.236 1029.39 -365.505 1198.92 -363.762C1368.44 -362.02 1282.45 -141.259 1446.08 -223.887C1609.71 -306.516 1693.43 -214.035 1754.1 -14.3206C1814.77 185.394 1389.5 -25.1963 1547.92 280.487C1706.35 586.171 1606.19 595.146 1396.6 596.829C1187 598.513 1225.1 779.945 1103.91 781.646C982.72 783.346 961.877 646.05 918.821 571.91C875.765 497.771 771.602 584.353 708.799 484.754C645.997 385.154 727.004 353.561 717.432 250.503C707.859 147.446 651.007 228.075 582.863 90.5602Z" fill="#FF900D"/>
<path d="M667.714 107.435C620.983 13.187 674.951 -40.0605 707.776 -54.9033C755.417 -101.544 892.089 -35.951 913.033 -130.049C933.978 -224.146 1049.79 -283.56 1194.93 -282.139C1340.07 -280.717 1266.56 -91.5077 1406.61 -162.382C1546.67 -233.256 1618.4 -154.043 1670.44 17.0691C1722.49 188.181 1358.27 7.90285 1494.07 269.78C1629.87 531.658 1544.12 539.39 1364.67 540.921C1185.22 542.452 1217.94 697.907 1114.18 699.416C1010.42 700.924 992.503 583.282 955.601 519.769C918.699 456.256 829.562 530.493 775.741 445.171C721.919 359.85 791.26 332.743 783.01 244.436C774.761 156.129 726.128 225.245 667.714 107.435Z" fill="#FF9E0D"/>
<path d="M753.261 148.836C710.454 73.5941 752.298 27.3197 778.571 13.5878C815.527 -26.9625 930.884 20.5251 943.684 -57.7636C956.483 -136.052 1048.84 -190.289 1168.15 -195.92C1287.46 -201.55 1235.94 -42.6591 1347.68 -107.447C1459.42 -172.235 1522.06 -110.516 1572.84 27.6259C1623.62 165.768 1315.94 34.7176 1439.77 243.507C1563.61 452.296 1493.52 462.665 1346.16 472.328C1198.8 481.991 1232.96 608.176 1147.79 614.276C1062.62 620.375 1042.39 524.563 1009.09 474.111C975.801 423.66 906.047 488.826 857.833 421.249C809.618 353.673 865.316 328.155 854.403 255.991C843.489 183.827 806.771 242.889 753.261 148.836Z" fill="#FFAD0D"/>
<path d="M826.037 180.801C787.095 121.323 819.021 81.2507 839.852 68.6492C868.065 33.5189 965.05 66.531 971.53 1.70638C978.009 -63.1182 1050.93 -112.306 1148.44 -123.034C1245.94 -133.762 1211.85 -0.887891 1300.12 -59.7166C1388.39 -118.545 1442.89 -71.1675 1491.59 39.4582C1540.28 150.084 1281.38 58.4341 1393.58 223.222C1505.78 388.009 1448.87 400.099 1328.58 415.57C1208.29 431.041 1242.76 532.717 1173.26 542.08C1103.76 551.444 1082.27 473.949 1052.4 434.302C1022.52 394.656 968.687 451.643 925.706 398.725C882.725 345.807 927.07 322.037 914.427 263.448C901.785 204.858 874.715 255.149 826.037 180.801Z" fill="#FFBB0D"/>
</g>
</svg>
